<?xml version="1.0" encoding="UTF-8"?>
<svg version="1.1" viewBox="0 0 1024 1024" xmlns="http://www.w3.org/2000/svg">
<path d="m300.93 361.5c-5.1128 4.0729-9.7181 8.7648-14.472 13.16-4.5434 4.6672-9.0496 9.3095-13.259 14.212-16.762 19.659-31.222 40.865-42.351 63.706-22.692 45.359-34.601 95.262-36.347 144.73-0.7923 24.747 1.0523 49.407 5.3109 73.412 4.6548 23.942 11.637 47.229 21.466 69.116 9.6933 21.924 22.308 42.301 37.337 61.28 14.88 19.028 31.927 36.607 50.72 52.366 18.631 15.945 38.922 30.182 60.363 42.685 21.318 12.739 43.898 23.534 67.135 32.992 23.224 9.52 47.278 17.257 71.765 23.806 24.574 6.2517 49.593 11.216 74.934 14.93 25.354 3.7139 51.042 5.707 76.89 7.0069 25.861 1.077 51.883 0.8666 78.017-0.1362 26.096-1.3494 52.354-3.2311 78.599-6.4003 26.319-2.7978 155.29-34.638 41.806 4.0482-12.627 4.5062-25.279 9.1362-38.167 13.023-25.638 8.4306-51.982 14.521-78.562 20.043-26.678 4.9395-53.691 8.8143-80.976 10.795-6.8088 0.6313-13.655 0.8294-20.501 1.1513-6.846 0.3342-13.704 0.5942-20.575 0.5323-6.8707 0-13.741 0.1486-20.625 0.012l-20.649-0.8171c-55.065-2.9587-110.34-13.209-163.18-32.212-26.431-9.4209-52.156-21.169-76.915-34.911-24.636-13.964-48.194-30.145-70.069-48.59-21.714-18.631-41.819-39.454-59.274-62.604-17.208-23.2-32.422-48.652-42.958-75.912-10.659-27.149-17.913-55.449-21.305-84.046-3.3797-28.597-3.1073-57.38 0.25998-85.593 7.106-56.352 27-110.79 59.125-156.59 23.856-34.255 55.894-62.468 91.102-83.018 19.288-11.253 15.091-1.0894 5.3604 7.7992z" fill="#e05922" stroke-width="1.238"/>
<path d="m446.8 488.12c5.4966-4.7538 13.085 2.216 9.3095 8.4306-6.1775 10.127-9.3343 21.281-8.6039 31.841 0.63136 10.411 4.5434 19.783 10.77 27.26 6.1032 7.044 14.559 12.85 23.843 16.49 18.644 7.6383 39.442 6.7717 55.015-1.1266 15.673-7.7744 28.572-22.469 35.146-39.553 6.8212-17.059 7.3288-35.356 2.3769-51.512-2.414-8.1706-6.685-15.796-11.798-23.175l-1.8693-2.7854-2.0426-2.3769-1.9808-2.414-2.3274-2.3274c-1.4732-1.5846-3.0578-3.1321-4.8405-4.5681-1.696-1.4856-3.3425-3.0083-5.2738-4.3081-14.583-11.29-32.509-18.792-50.435-21.405-9.0248-1.0523-18.062-1.3618-27.112-0.39615-2.2655 0.28474-4.5062 0.80468-6.7717 1.1513l-3.392 0.54471-3.3549 0.94086-6.4251 1.7084c-0.21046 0.0619-0.42091 0.1238-0.63137 0.19807l-6.3384 2.414c-17.889 6.6479-33.97 17.134-45.991 31.222-12.392 13.741-21.405 30.714-26.022 49.383-4.6424 18.706-4.6548 38.885-0.86658 58.989 1.8322 10.077 5.1004 20.03 9.0619 29.86 3.6892 9.6933 8.2573 18.037 14.175 26.319 23.435 32.88 65.922 55.709 112.16 63.916 23.175 4.3577 47.476 5.0385 71.678 1.857 12.231-1.7084 24.512-4.3824 36.557-8.3563 6.8336-2.2531 11.612 6.8955 5.7566 11.092-11.067 7.923-23.286 14.559-36.05 19.808-25.242 10.523-52.775 16.032-80.765 16.75-27.978 0.59422-56.65-3.3301-84.194-13.432-13.816-4.9148-27.235-11.526-40.011-19.647-12.739-8.1458-24.957-17.802-35.517-29.377-10.56-11.365-20.068-24.722-27.198-38.278-7.106-13.296-13.073-27.421-17.356-42.24-8.901-29.55-10.894-61.886-5.348-93.504 5.6823-31.63 20.278-62.01 41.15-87.24 21.046-25.279 49.048-44.109 79.069-55.572l11.166-3.9615c0.17332-0.0619 0.34663-0.11142 0.51995-0.16094l11.612-3.0206 5.9546-1.4608 6.1032-1.0028c4.0853-0.61898 8.1335-1.3494 12.244-1.795 16.502-1.5475 33.24-1.0894 49.605 1.6589 32.559 6.2641 63.137 20.216 87.822 42.079 3.1692 2.5997 6.1156 5.5585 9.0496 8.5172 2.9835 2.8597 5.8061 5.9794 8.5172 9.26l3.9367 4.6672c0.099 0.11142 0.1857 0.23521 0.27236 0.35901l3.7015 5.0757 3.6149 5.0881c0.099 0.13618 0.1857 0.27235 0.27236 0.42091l3.0949 5.1623c8.6534 14.2 15.202 30.268 18.557 47.142 3.4044 16.824 3.912 34.279 1.1637 51.017-2.7483 16.75-8.4182 32.72-16.49 47.204-8.0097 14.509-18.681 27.471-31.531 38.142-12.59 10.671-27.817 19.09-44.072 23.695-16.242 4.6548-33.363 5.6328-49.383 2.8102-16.032-2.8102-31.073-8.8267-44.146-17.715-12.962-8.9753-24.413-20.6-31.742-35.468-6.9203-14.484-9.2972-31.383-5.8185-46.473 1.5475-7.5888 4.63-14.596 8.282-20.971 3.9986-6.2146 8.4801-11.897 13.816-16.539 0.11142-0.0867 0.21046-0.1857 0.32187-0.27235z" fill="#018080" stroke-width="1.238"/>
<path d="m0.012378 649.97 0.08666-20.389 0.64374-20.439c1.2751-27.285 4.7043-54.57 10.04-81.694 10.783-54.136 30.417-107.72 60.97-155.95 30.293-48.268 71.951-90.52 121.12-121.38 24.561-15.438 50.93-27.978 78.215-37.783 27.396-9.4952 55.696-16.316 84.405-19.981 57.38-7.1555 116.37-3.1568 172.28 15.636 13.952 4.7167 27.718 10.609 40.989 17.344 13.172 6.8955 25.626 14.806 37.585 23.274 11.897 8.5668 23.076 17.975 33.636 27.953 10.411 10.139 20.29 20.748 29.414 31.977 36.025 45.013 60.562 99.929 65.092 157.15 2.2902 28.486-0.61899 57.207-8.7525 83.984-8.0592 26.79-27.409 47.984-24.165 35.084 3.8006-12.664 6.1032-25.638 7.6506-38.501 1.2751-12.937 1.6341-25.812 0.95324-38.55-1.0646-12.739-2.3026-25.354-5.3852-37.647-11.204-49.308-37.548-93.851-71.926-129.6-34.366-35.951-76.927-63.112-122.88-76.271-46.721-13.246-97.428-15.982-146.43-9.4952-49.086 6.4003-96.908 22.098-139.66 46.808-43.019 24.388-80.443 58.333-111.13 98.369-30.726 40.123-54.149 86.621-71.827 135.89-8.9382 24.636-16.279 50.064-22.717 75.912l-4.5557 19.498-4.0606 19.671-3.8872 19.795c-2.8968 16.552-5.2861-7.0812-5.7194-20.674z" fill="#1ab7d1" stroke-width="1.238"/>
<path d="m1020.1 258.5c1.0647 12.813 2.0427 25.651 2.6493 38.526 1.5227 25.762 1.4732 51.623 0.5447 77.571-2.1665 51.846-9.1239 104.22-24.45 155.43-15.116 51.079-39.083 101.14-73.412 144.21-16.985 21.615-36.532 41.2-57.491 58.866-21.083 17.554-43.812 32.843-67.296 46.337-23.596 13.37-48.132 24.462-72.966 34.23-12.417 4.9519-25.044 9.0496-37.622 13.296l-18.966 5.8308c-6.227 1.9436-13.259 3.813-19.869 5.3109-26.814 6.2765-53.827 9.9162-81.038 10.845-27.186 0.9161-54.483-0.66851-81.359-5.4594-53.641-9.2105-105.96-31.692-146.82-67.234-20.414-17.653-38.179-37.956-52.18-60.289-3.3549-5.6947-6.8707-11.216-10.003-16.96-2.9711-5.8432-6.1651-11.513-8.8886-17.406-2.5378-6.0042-5.1995-11.909-7.5764-17.901-2.2407-6.0661 0.82944-7.6259 4.3329-2.315 3.6892 5.1995 7.6259 10.226 11.389 15.289 3.8377 5.0138 7.9478 9.8047 11.872 14.682 4.0606 4.7786 8.4553 9.26 12.615 13.865 17.27 17.926 36.334 33.549 56.885 46.213 40.964 25.638 87.525 39.318 134.84 43.007 47.253 3.7387 95.745-1.3246 140.99-14.113 5.7442-1.6217 10.968-3.293 16.861-5.2614l17.406-5.9175c11.439-4.271 22.977-8.3563 34.094-13.197 22.469-9.1734 44.406-19.337 65.08-31.284 41.621-23.385 79.032-52.688 109.77-88.292 15.437-17.74 29.129-37.077 41.237-57.615 11.984-20.6 22.506-42.339 31.556-64.919 18.322-45.124 30.714-93.492 40.469-142.8 9.8913-49.37 26.134-125.34 27.359-112.53z" fill="#9d744f" stroke-width="1.238"/>
<path d="m786.35 625.46c-3.6273 6.5489-13.581 2.5131-11.699-4.729 18.05-69.314 27.037-139 21.541-206.99-5.8804-82.263-35.146-160.54-85.284-222.23-49.865-62.22-121.53-105.02-200.58-128.86-39.603-11.959-81.112-19.944-123.57-23.819-10.597-1.337-21.281-1.5103-32.002-2.4388-10.733-1.0894-21.479-1.0399-32.311-1.4608-10.82-0.3095-21.726-0.95324-32.583-0.50757-10.907-0.0495-15.809-5.2119-7.1926-7.7002 5.7813-1.6713 11.625-3.1568 17.505-4.4814 17.666-3.9739 35.443-8.3811 53.542-10.473 11.03-1.337 22.085-3.0949 33.227-3.8748 44.555-3.9739 90.1-1.6713 135.07 6.6603 44.938 8.4182 89.258 23.918 130.09 46.845 5.249 2.5997 10.176 5.7813 15.066 9.0248l14.757 9.6066c9.6314 6.5736 18.656 14.051 27.991 21.095 0.13617 0.099 0.27235 0.21045 0.39615 0.32187 8.6782 7.8487 17.418 15.673 25.737 23.918l12.045 12.999c4.0234 4.3329 8.0963 8.6163 11.6 13.382 7.1307 9.421 14.781 18.471 20.922 28.585l9.6686 14.831c3.0826 5.0262 5.7813 10.275 8.5915 15.462 2.7112 5.2366 5.6947 10.337 8.1458 15.673l7.0936 16.156c5.0633 10.634 8.4925 21.887 12.318 32.955 14.472 44.567 20.563 91.3 19.09 137.18-2.3026 75.801-23.781 148.95-59.15 212.87z" fill="#00966f" stroke-width="1.238"/>
</svg>
